<?xml version="1.0" encoding="UTF-8" standalone="no"?>
<!-- Created with Inkscape (http://www.inkscape.org/) -->

<svg
   xmlns:dc="http://purl.org/dc/elements/1.1/"
   xmlns:cc="http://creativecommons.org/ns#"
   xmlns:rdf="http://www.w3.org/1999/02/22-rdf-syntax-ns#"
   xmlns:svg="http://www.w3.org/2000/svg"
   xmlns="http://www.w3.org/2000/svg"
   xmlns:sodipodi="http://sodipodi.sourceforge.net/DTD/sodipodi-0.dtd"
   xmlns:inkscape="http://www.inkscape.org/namespaces/inkscape"
   width="62.850399mm"
   height="67.207932mm"
   viewBox="0 0 62.850399 67.207932"
   version="1.1"
   id="svg4627"
   inkscape:version="0.92.4 (5da689c313, 2019-01-14)"
   sodipodi:docname="black-cat.svg">
  <defs
     id="defs4621" />
  <sodipodi:namedview
     id="base"
     pagecolor="#ffffff"
     bordercolor="#666666"
     borderopacity="1.0"
     inkscape:pageopacity="0.0"
     inkscape:pageshadow="2"
     inkscape:zoom="2.8"
     inkscape:cx="-0.32568571"
     inkscape:cy="123.22933"
     inkscape:document-units="mm"
     inkscape:current-layer="layer1"
     showgrid="false"
     inkscape:window-width="1920"
     inkscape:window-height="1017"
     inkscape:window-x="-8"
     inkscape:window-y="453"
     inkscape:window-maximized="1"
     inkscape:snap-page="true"
     fit-margin-top="0"
     fit-margin-left="0"
     fit-margin-right="0"
     fit-margin-bottom="0" />
  <metadata
     id="metadata4624">
    <rdf:RDF>
      <cc:Work
         rdf:about="">
        <dc:format>image/svg+xml</dc:format>
        <dc:type
           rdf:resource="http://purl.org/dc/dcmitype/StillImage" />
        <dc:title></dc:title>
      </cc:Work>
    </rdf:RDF>
  </metadata>
  <g
     inkscape:label="Layer 1"
     inkscape:groupmode="layer"
     id="layer1"
     transform="translate(-0.54619139,-0.50410132)">
    <path
       style="fill:#000000;stroke:#000000;stroke-width:0.26458332px;stroke-linecap:butt;stroke-linejoin:miter;stroke-opacity:1"
       d="m 63.5546,41.324855 c 0,0 -11.28017,7.60117 -10.95805,5.61267 0.44498,-2.74692 0.44519,-11.66016 -2.02745,-18.7955 -0.0427,-4.92512 0.99184,-2.81242 0.95837,-10.60414 C 51.46817,3.7371447 49.50844,0.94104477 48.90063,0.77818477 c -0.88228,-0.23641 -1.50339,3.79908993 -6.31425,6.30473993 -3.68036,2.61855 -4.59406,7.4322203 -6.38683,8.1208503 -2.94422,1.13094 -1.2849,2.22503 -2.84641,2.70161 -4.12086,0.52756 -2.82282,-0.34142 -4.77371,-1.66083 2.77381,2.55485 -0.0706,2.12854 -0.0706,2.12854 0,0 -2.00452,-1.77066 -5.378797,-0.86862 0.96885,0.70158 0.862076,-1.06907 2.732963,0.86862 -1.971113,-0.23385 -3.167278,0.20045 -4.704078,0.13363 -1.394237,0.0199 0,0 -4.519637,0.7375 -2.20795,-4.1079 -2.951609,-7.60579 -7.0328867,-10.6454603 -4.020844,-2.99466 -7.436155,-6.38197 -7.883805,-5.68521 -0.81514495,0.26245 -0.140608,6.7027 -0.599135,12.1049203 -0.4296909,5.06249 0.08065,10.2893 1.08602,14.80315 -1.23284495,10.99481 -0.126919,17.50501 1.760181,19.62695 0.658676,3.16138 3.42589,6.18014 4.891915,9.69163 l 1.2390697,8.37708 53.29595,0.19475 z"
       id="path4540"
       inkscape:connector-curvature="0"
       sodipodi:nodetypes="cscsccscccccccscscccccc" />
    <path
       style="fill:#ffff00;stroke:#000000;stroke-width:0.26458332px;stroke-linecap:butt;stroke-linejoin:miter;stroke-opacity:1"
       d="m 41.19692,36.449439 c 0,0 -3.01556,-2.70239 -7.00647,-0.16492 -1.60251,1.0189 -2.49445,3.88042 -2.49445,3.88042 0,0 4.46632,4.71363 8.46306,0.71585 0.85977,-0.85998 0.49836,-2.43606 1.03786,-4.43135 z"
       id="path4542"
       inkscape:connector-curvature="0"
       sodipodi:nodetypes="cscsc" />
    <path
       style="fill:#ffffff;stroke:#000000;stroke-width:0.26458332px;stroke-linecap:butt;stroke-linejoin:miter;stroke-opacity:1"
       d="m 24.956941,50.412889 c 0,0 -1.469982,-0.73499 -1.603618,-0.26727 -0.133636,0.46772 1.603618,0.60135 1.603618,0.26727 z"
       id="path4548"
       inkscape:connector-curvature="0" />
    <path
       style="fill:#ffffff;stroke:#000000;stroke-width:0.26458332px;stroke-linecap:butt;stroke-linejoin:miter;stroke-opacity:1"
       d="m 27.8969,50.479709 c 0,0 0.86863,-1.13591 0.93545,-0.735 0.0668,0.40091 -0.66817,0.86863 -0.93545,0.735 z"
       id="path4550"
       inkscape:connector-curvature="0" />
    <path
       style="fill:#000000;stroke:#000000;stroke-width:0.26458332px;stroke-linecap:butt;stroke-linejoin:miter;stroke-opacity:1"
       d="m 36.23349,36.214349 c 0,0 -1.64151,1.44771 -0.0473,5.4334 l 0.28348,0.70871 c 0,0 2.4096,-4.25223 -0.23623,-6.14211 z"
       id="path4552-1"
       inkscape:connector-curvature="0"
       sodipodi:nodetypes="csccc" />
    <path
       style="fill:#ffff00;stroke:#000000;stroke-width:0.26458332px;stroke-linecap:butt;stroke-linejoin:miter;stroke-opacity:1"
       d="m 11.681145,36.852929 c 0,0 3.699945,-2.66327 7.289951,-0.25943 1.577928,1.05658 2.021983,3.88042 2.021983,3.88042 0,0 -3.995747,4.88684 -8.469188,0.42804 -0.816345,-0.81367 -0.391851,-2.24231 -0.842746,-4.04903 z"
       id="path4542-3"
       inkscape:connector-curvature="0"
       sodipodi:nodetypes="cscsc" />
    <path
       style="fill:#000000;stroke:#000000;stroke-width:0.26458332px;stroke-linecap:butt;stroke-linejoin:miter;stroke-opacity:1"
       d="m 16.928056,36.523329 c 0,0 1.385641,3.10107 0.141744,5.4334 l -0.377976,0.70871 c 0,0 -1.937128,-4.53572 0.236236,-6.14211 z"
       id="path4552-1-0"
       inkscape:connector-curvature="0"
       sodipodi:nodetypes="csccc" />
    <ellipse
       style="fill:#ffffff;fill-opacity:1;stroke:#ffffff;stroke-width:0.08102381;stroke-miterlimit:4;stroke-dasharray:none;stroke-opacity:1"
       id="path4587"
       cx="17.68401"
       cy="38.554943"
       rx="1.2102236"
       ry="1.3519646" />
    <ellipse
       style="fill:#ffffff;fill-opacity:1;stroke:#ffffff;stroke-width:0.08102381;stroke-miterlimit:4;stroke-dasharray:none;stroke-opacity:1"
       id="path4587-8"
       cx="37.68906"
       cy="37.742489"
       rx="1.2102236"
       ry="1.3519646" />
  </g>
</svg>
